<?xml version="1.0" encoding="UTF-8" standalone="no"?>
<!DOCTYPE svg PUBLIC "-//W3C//DTD SVG 1.1//EN" "http://www.w3.org/Graphics/SVG/1.1/DTD/svg11.dtd">
<svg width="100%" height="100%" viewBox="0 0 241 49" version="1.1" xmlns="http://www.w3.org/2000/svg" xmlns:xlink="http://www.w3.org/1999/xlink" xml:space="preserve" xmlns:serif="http://www.serif.com/" style="fill-rule:evenodd;clip-rule:evenodd;stroke-linejoin:round;stroke-miterlimit:2;">
    <g transform="matrix(0.11156,0,0,0.065923,-78.5251,-9.36108)">
        <path d="M816.382,142L816.382,882L703.881,711.879L703.881,312.121L816.382,142Z"/>
    </g>
    <g transform="matrix(0.11156,0,0,0.065923,-63.8469,-9.36108)">
        <path d="M816.382,142L816.382,882L703.881,771.788L703.881,252.212L816.382,142Z"/>
    </g>
    <g transform="matrix(0.11156,0,0,0.065923,-49.1686,-9.36108)">
        <path d="M816.382,142L816.382,882L703.881,800.032L703.881,223.968L816.382,142Z"/>
    </g>
    <g transform="matrix(2.09213,0,0,2.09213,-44.2399,-23.2446)">
        <g transform="matrix(1.161578,0,0,1.161578,-32.61214,-3.889318)">
            <g transform="matrix(12,0,0,12,81.930828,24.302772)">
                <path d="M0.371,-0.153L0.373,-0.153L0.515,-0.536L0.653,-0.536L0.653,-0L0.559,-0L0.559,-0.409L0.557,-0.409L0.4,-0L0.336,-0L0.18,-0.409L0.178,-0.409L0.178,-0L0.084,-0L0.084,-0.536L0.226,-0.536L0.371,-0.153Z" style="fill-rule:nonzero;"/>
            </g>
            <g transform="matrix(12,0,0,12,90.774828,24.302772)">
                <path d="M0.104,-0L0.003,-0L0.231,-0.536L0.32,-0.536L0.547,-0L0.443,-0L0.393,-0.124L0.155,-0.124L0.104,-0ZM0.184,-0.201L0.363,-0.201L0.274,-0.426L0.184,-0.201Z" style="fill-rule:nonzero;"/>
            </g>
            <g transform="matrix(12,0,0,12,97.302828,24.302772)">
                <path d="M0.477,-0.409C0.462,-0.426 0.442,-0.44 0.418,-0.45C0.395,-0.46 0.369,-0.465 0.34,-0.465C0.311,-0.465 0.286,-0.46 0.263,-0.45C0.24,-0.44 0.221,-0.426 0.205,-0.409C0.189,-0.391 0.177,-0.37 0.168,-0.346C0.159,-0.322 0.155,-0.296 0.155,-0.269C0.155,-0.242 0.16,-0.216 0.169,-0.192C0.177,-0.168 0.19,-0.147 0.207,-0.129C0.223,-0.111 0.243,-0.097 0.266,-0.087C0.289,-0.076 0.315,-0.071 0.344,-0.071C0.386,-0.071 0.422,-0.078 0.452,-0.092L0.452,-0.224L0.339,-0.224L0.339,-0.302L0.548,-0.302L0.548,-0.034C0.519,-0.019 0.488,-0.007 0.454,0.002C0.419,0.01 0.382,0.014 0.342,0.014C0.299,0.014 0.26,0.007 0.225,-0.007C0.189,-0.021 0.158,-0.041 0.133,-0.066C0.108,-0.091 0.088,-0.12 0.073,-0.155C0.059,-0.19 0.052,-0.228 0.052,-0.269C0.052,-0.311 0.059,-0.349 0.074,-0.384C0.089,-0.419 0.109,-0.448 0.134,-0.473C0.159,-0.497 0.19,-0.516 0.225,-0.529C0.26,-0.543 0.298,-0.55 0.339,-0.55C0.382,-0.55 0.421,-0.543 0.457,-0.53C0.491,-0.517 0.521,-0.499 0.544,-0.478L0.477,-0.409Z" style="fill-rule:nonzero;"/>
            </g>
            <g transform="matrix(12,0,0,12,104.802828,24.302772)">
                <path d="M0.439,-0.13L0.441,-0.13L0.441,-0.536L0.534,-0.536L0.534,-0L0.42,-0L0.179,-0.404L0.177,-0.404L0.177,-0L0.084,-0L0.084,-0.536L0.2,-0.536L0.439,-0.13Z" style="fill-rule:nonzero;"/>
            </g>
            <g transform="matrix(12,0,0,12,112.218828,24.302772)">
                <path d="M0.629,-0.269C0.629,-0.228 0.622,-0.19 0.607,-0.155C0.592,-0.12 0.572,-0.091 0.546,-0.066C0.52,-0.041 0.489,-0.021 0.454,-0.007C0.419,0.007 0.38,0.014 0.339,0.014C0.298,0.014 0.261,0.007 0.226,-0.007C0.191,-0.021 0.16,-0.041 0.135,-0.066C0.109,-0.091 0.089,-0.12 0.074,-0.155C0.059,-0.19 0.052,-0.228 0.052,-0.269C0.052,-0.311 0.059,-0.349 0.074,-0.384C0.089,-0.419 0.109,-0.448 0.135,-0.473C0.16,-0.497 0.191,-0.516 0.226,-0.529C0.261,-0.543 0.298,-0.55 0.339,-0.55C0.38,-0.55 0.419,-0.543 0.454,-0.529C0.489,-0.516 0.52,-0.497 0.546,-0.473C0.572,-0.448 0.592,-0.419 0.607,-0.384C0.622,-0.349 0.629,-0.311 0.629,-0.269ZM0.526,-0.269C0.526,-0.297 0.522,-0.323 0.513,-0.347C0.504,-0.37 0.492,-0.391 0.476,-0.409C0.459,-0.426 0.44,-0.44 0.416,-0.45C0.393,-0.46 0.368,-0.465 0.339,-0.465C0.311,-0.465 0.286,-0.46 0.263,-0.45C0.24,-0.44 0.221,-0.426 0.205,-0.409C0.189,-0.391 0.177,-0.37 0.168,-0.347C0.159,-0.323 0.155,-0.297 0.155,-0.269C0.155,-0.241 0.159,-0.215 0.168,-0.191C0.177,-0.166 0.189,-0.145 0.205,-0.128C0.221,-0.11 0.24,-0.096 0.263,-0.086C0.286,-0.076 0.311,-0.071 0.339,-0.071C0.368,-0.071 0.393,-0.076 0.416,-0.086C0.44,-0.096 0.459,-0.11 0.476,-0.128C0.492,-0.145 0.504,-0.166 0.513,-0.191C0.522,-0.215 0.526,-0.241 0.526,-0.269Z" style="fill-rule:nonzero;"/>
            </g>
            <g transform="matrix(12,0,0,12,120.390828,24.302772)">
                <path d="M0.18,-0.081L0.41,-0.081L0.41,-0L0.084,-0L0.084,-0.536L0.18,-0.536L0.18,-0.081Z" style="fill-rule:nonzero;"/>
            </g>
            <g transform="matrix(12,0,0,12,125.430828,24.302772)">
                <rect x="0.084" y="-0.536" width="0.096" height="0.536"/>
            </g>
            <g transform="matrix(12,0,0,12,128.598828,24.302772)">
                <path d="M0.104,-0L0.003,-0L0.231,-0.536L0.32,-0.536L0.547,-0L0.443,-0L0.393,-0.124L0.155,-0.124L0.104,-0ZM0.184,-0.201L0.363,-0.201L0.274,-0.426L0.184,-0.201Z" style="fill-rule:nonzero;"/>
            </g>
        </g>
        <g transform="matrix(0.451437,0,0,0.451437,45.046012,17.932116)">
            <g transform="matrix(12,0,0,12,40.710828,24.302772)">
                <path d="M0.641,-0L0.331,-0C0.291,-0 0.254,-0.006 0.221,-0.019C0.187,-0.033 0.158,-0.051 0.134,-0.074C0.109,-0.097 0.09,-0.126 0.076,-0.159C0.063,-0.192 0.056,-0.229 0.056,-0.27C0.056,-0.31 0.063,-0.347 0.077,-0.38C0.091,-0.413 0.11,-0.442 0.135,-0.466C0.159,-0.49 0.188,-0.509 0.222,-0.522C0.255,-0.536 0.292,-0.543 0.331,-0.543C0.37,-0.543 0.407,-0.536 0.44,-0.522C0.473,-0.509 0.502,-0.49 0.526,-0.466C0.551,-0.442 0.57,-0.413 0.584,-0.38C0.597,-0.347 0.604,-0.31 0.604,-0.27C0.604,-0.224 0.595,-0.184 0.576,-0.149C0.557,-0.114 0.53,-0.086 0.495,-0.065L0.495,-0.063L0.641,-0.063L0.641,-0ZM0.132,-0.27C0.132,-0.241 0.137,-0.213 0.146,-0.188C0.155,-0.163 0.169,-0.141 0.186,-0.122C0.203,-0.104 0.224,-0.09 0.248,-0.079C0.273,-0.068 0.3,-0.063 0.331,-0.063C0.361,-0.063 0.388,-0.068 0.413,-0.079C0.437,-0.09 0.458,-0.104 0.476,-0.122C0.493,-0.141 0.507,-0.163 0.516,-0.188C0.525,-0.213 0.53,-0.241 0.53,-0.27C0.53,-0.299 0.525,-0.326 0.516,-0.352C0.507,-0.377 0.493,-0.4 0.476,-0.419C0.459,-0.438 0.438,-0.454 0.413,-0.465C0.388,-0.476 0.361,-0.482 0.331,-0.482C0.301,-0.482 0.274,-0.476 0.249,-0.465C0.225,-0.454 0.204,-0.438 0.186,-0.419C0.169,-0.4 0.155,-0.377 0.146,-0.352C0.137,-0.326 0.132,-0.299 0.132,-0.27Z" style="fill-rule:nonzero;"/>
            </g>
            <g transform="matrix(12,0,0,12,48.774828,24.302772)">
                <path d="M0.286,0.012C0.25,0.012 0.219,0.006 0.194,-0.006C0.168,-0.018 0.147,-0.034 0.13,-0.053C0.113,-0.073 0.101,-0.096 0.093,-0.121C0.086,-0.146 0.082,-0.172 0.082,-0.199L0.082,-0.531L0.152,-0.531L0.152,-0.204C0.152,-0.185 0.154,-0.166 0.159,-0.148C0.163,-0.13 0.17,-0.114 0.181,-0.1C0.192,-0.085 0.206,-0.074 0.223,-0.065C0.24,-0.056 0.261,-0.052 0.286,-0.052C0.311,-0.052 0.332,-0.056 0.349,-0.065C0.366,-0.074 0.38,-0.085 0.391,-0.1C0.401,-0.114 0.408,-0.13 0.413,-0.148C0.418,-0.166 0.42,-0.185 0.42,-0.204L0.42,-0.531L0.49,-0.531L0.49,-0.199C0.49,-0.172 0.486,-0.146 0.478,-0.121C0.47,-0.096 0.458,-0.073 0.442,-0.053C0.425,-0.034 0.404,-0.018 0.379,-0.006C0.353,0.006 0.322,0.012 0.286,0.012Z" style="fill-rule:nonzero;"/>
            </g>
            <g transform="matrix(12,0,0,12,55.494828,24.302772)">
                <path d="M0.08,-0L0.006,-0L0.235,-0.531L0.3,-0.531L0.528,-0L0.449,-0L0.394,-0.133L0.136,-0.133L0.08,-0ZM0.161,-0.194L0.369,-0.194L0.266,-0.45L0.161,-0.194Z" style="fill-rule:nonzero;"/>
            </g>
            <g transform="matrix(12,0,0,12,61.902828,24.302772)">
                <path d="M0.16,-0.063L0.399,-0.063L0.399,-0L0.09,-0L0.09,-0.531L0.16,-0.531L0.16,-0.063Z" style="fill-rule:nonzero;"/>
            </g>
            <g transform="matrix(12,0,0,12,66.954828,24.302772)">
                <rect x="0.09" y="-0.531" width="0.07" height="0.531"/>
            </g>
            <g transform="matrix(12,0,0,12,69.954828,24.302772)">
                <path d="M0.253,-0L0.183,-0L0.183,-0.469L0.012,-0.469L0.012,-0.531L0.426,-0.531L0.426,-0.469L0.253,-0.469L0.253,-0Z" style="fill-rule:nonzero;"/>
            </g>
            <g transform="matrix(12,0,0,12,74.922828,24.302772)">
                <path d="M0.08,-0L0.006,-0L0.235,-0.531L0.3,-0.531L0.528,-0L0.449,-0L0.394,-0.133L0.136,-0.133L0.08,-0ZM0.161,-0.194L0.369,-0.194L0.266,-0.45L0.161,-0.194Z" style="fill-rule:nonzero;"/>
            </g>
            <g transform="matrix(12,0,0,12,81.210828,24.302772)">
                <path d="M0.253,-0L0.183,-0L0.183,-0.469L0.012,-0.469L0.012,-0.531L0.426,-0.531L0.426,-0.469L0.253,-0.469L0.253,-0Z" style="fill-rule:nonzero;"/>
            </g>
            <g transform="matrix(12,0,0,12,86.466828,24.302772)">
                <rect x="0.09" y="-0.531" width="0.07" height="0.531"/>
            </g>
            <g transform="matrix(12,0,0,12,89.466828,24.302772)">
                <path d="M0.248,-0.091L0.25,-0.091L0.412,-0.531L0.489,-0.531L0.282,-0L0.215,-0L0.008,-0.531L0.085,-0.531L0.248,-0.091Z" style="fill-rule:nonzero;"/>
            </g>
            <g transform="matrix(12,0,0,12,95.430828,24.302772)">
                <path d="M0.16,-0.063L0.439,-0.063L0.439,-0L0.09,-0L0.09,-0.531L0.428,-0.531L0.428,-0.469L0.16,-0.469L0.16,-0.306L0.412,-0.306L0.412,-0.245L0.16,-0.245L0.16,-0.063Z" style="fill-rule:nonzero;"/>
            </g>
            <g transform="matrix(12,0,0,12,104.418828,24.302772)">
                <path d="M0.09,-0.531L0.271,-0.531C0.305,-0.531 0.339,-0.526 0.372,-0.515C0.406,-0.505 0.437,-0.489 0.464,-0.468C0.491,-0.447 0.513,-0.419 0.53,-0.386C0.547,-0.353 0.556,-0.313 0.556,-0.266C0.556,-0.221 0.547,-0.181 0.53,-0.148C0.513,-0.115 0.491,-0.087 0.464,-0.065C0.437,-0.043 0.406,-0.027 0.372,-0.016C0.339,-0.005 0.305,-0 0.271,-0L0.09,-0L0.09,-0.531ZM0.16,-0.063L0.256,-0.063C0.289,-0.063 0.32,-0.068 0.348,-0.077C0.375,-0.087 0.399,-0.101 0.418,-0.118C0.438,-0.135 0.454,-0.157 0.465,-0.181C0.475,-0.206 0.481,-0.235 0.481,-0.266C0.481,-0.298 0.475,-0.327 0.465,-0.352C0.454,-0.377 0.438,-0.398 0.418,-0.415C0.399,-0.432 0.375,-0.446 0.348,-0.455C0.32,-0.464 0.289,-0.469 0.256,-0.469L0.16,-0.469L0.16,-0.063Z" style="fill-rule:nonzero;"/>
            </g>
            <g transform="matrix(12,0,0,12,111.690828,24.302772)">
                <path d="M0.08,-0L0.006,-0L0.235,-0.531L0.3,-0.531L0.528,-0L0.449,-0L0.394,-0.133L0.136,-0.133L0.08,-0ZM0.161,-0.194L0.369,-0.194L0.266,-0.45L0.161,-0.194Z" style="fill-rule:nonzero;"/>
            </g>
            <g transform="matrix(12,0,0,12,117.978828,24.302772)">
                <path d="M0.253,-0L0.183,-0L0.183,-0.469L0.012,-0.469L0.012,-0.531L0.426,-0.531L0.426,-0.469L0.253,-0.469L0.253,-0Z" style="fill-rule:nonzero;"/>
            </g>
            <g transform="matrix(12,0,0,12,122.946828,24.302772)">
                <path d="M0.08,-0L0.006,-0L0.235,-0.531L0.3,-0.531L0.528,-0L0.449,-0L0.394,-0.133L0.136,-0.133L0.08,-0ZM0.161,-0.194L0.369,-0.194L0.266,-0.45L0.161,-0.194Z" style="fill-rule:nonzero;"/>
            </g>
            <g transform="matrix(12,0,0,12,132.354828,24.302772)">
                <path d="M0.08,-0L0.006,-0L0.235,-0.531L0.3,-0.531L0.528,-0L0.449,-0L0.394,-0.133L0.136,-0.133L0.08,-0ZM0.161,-0.194L0.369,-0.194L0.266,-0.45L0.161,-0.194Z" style="fill-rule:nonzero;"/>
            </g>
            <g transform="matrix(12,0,0,12,138.762828,24.302772)">
                <path d="M0.451,-0.102L0.453,-0.102L0.453,-0.531L0.523,-0.531L0.523,-0L0.435,-0L0.161,-0.438L0.16,-0.438L0.16,-0L0.09,-0L0.09,-0.531L0.181,-0.531L0.451,-0.102Z" style="fill-rule:nonzero;"/>
            </g>
            <g transform="matrix(12,0,0,12,146.118828,24.302772)">
                <path d="M0.08,-0L0.006,-0L0.235,-0.531L0.3,-0.531L0.528,-0L0.449,-0L0.394,-0.133L0.136,-0.133L0.08,-0ZM0.161,-0.194L0.369,-0.194L0.266,-0.45L0.161,-0.194Z" style="fill-rule:nonzero;"/>
            </g>
            <g transform="matrix(12,0,0,12,152.526828,24.302772)">
                <path d="M0.16,-0.063L0.399,-0.063L0.399,-0L0.09,-0L0.09,-0.531L0.16,-0.531L0.16,-0.063Z" style="fill-rule:nonzero;"/>
            </g>
            <g transform="matrix(12,0,0,12,157.002828,24.302772)">
                <path d="M0.268,-0L0.198,-0L0.198,-0.23L0,-0.531L0.084,-0.531L0.234,-0.288L0.384,-0.531L0.468,-0.531L0.268,-0.23L0.268,-0Z" style="fill-rule:nonzero;"/>
            </g>
            <g transform="matrix(12,0,0,12,162.618828,24.302772)">
                <path d="M0.339,-0.433C0.328,-0.448 0.313,-0.46 0.295,-0.47C0.277,-0.478 0.257,-0.483 0.234,-0.483C0.222,-0.483 0.21,-0.481 0.197,-0.478C0.184,-0.475 0.173,-0.47 0.163,-0.463C0.153,-0.456 0.145,-0.447 0.139,-0.436C0.132,-0.425 0.129,-0.412 0.129,-0.397C0.129,-0.382 0.132,-0.369 0.138,-0.359C0.143,-0.35 0.151,-0.342 0.161,-0.335C0.171,-0.328 0.182,-0.322 0.196,-0.317C0.208,-0.312 0.223,-0.308 0.238,-0.303C0.256,-0.297 0.274,-0.291 0.293,-0.284C0.312,-0.277 0.329,-0.268 0.344,-0.257C0.358,-0.246 0.371,-0.232 0.381,-0.214C0.39,-0.198 0.395,-0.176 0.395,-0.149C0.395,-0.122 0.39,-0.098 0.38,-0.077C0.369,-0.057 0.355,-0.04 0.339,-0.027C0.322,-0.014 0.302,-0.004 0.281,0.003C0.259,0.009 0.236,0.012 0.213,0.012C0.18,0.012 0.147,0.005 0.116,-0.008C0.085,-0.021 0.059,-0.041 0.04,-0.066L0.096,-0.113C0.107,-0.094 0.123,-0.078 0.144,-0.067C0.165,-0.055 0.189,-0.049 0.214,-0.049C0.227,-0.049 0.24,-0.051 0.253,-0.054C0.266,-0.058 0.277,-0.064 0.288,-0.072C0.299,-0.079 0.307,-0.089 0.314,-0.101C0.321,-0.112 0.324,-0.126 0.324,-0.142C0.324,-0.159 0.321,-0.173 0.314,-0.183C0.306,-0.195 0.297,-0.204 0.286,-0.211C0.274,-0.218 0.26,-0.225 0.245,-0.23C0.23,-0.235 0.214,-0.24 0.197,-0.245C0.18,-0.25 0.163,-0.257 0.146,-0.264C0.129,-0.271 0.115,-0.28 0.102,-0.291C0.089,-0.302 0.078,-0.316 0.07,-0.333C0.062,-0.35 0.058,-0.37 0.058,-0.394C0.058,-0.42 0.063,-0.443 0.074,-0.462C0.085,-0.48 0.098,-0.496 0.116,-0.508C0.133,-0.52 0.152,-0.529 0.173,-0.534C0.194,-0.54 0.216,-0.543 0.238,-0.543C0.269,-0.543 0.298,-0.537 0.325,-0.526C0.352,-0.515 0.373,-0.5 0.389,-0.481L0.339,-0.433Z" style="fill-rule:nonzero;"/>
            </g>
            <g transform="matrix(12,0,0,12,168.018828,24.302772)">
                <rect x="0.09" y="-0.531" width="0.07" height="0.531"/>
            </g>
            <g transform="matrix(12,0,0,12,171.018828,24.302772)">
                <path d="M0.339,-0.433C0.328,-0.448 0.313,-0.46 0.295,-0.47C0.277,-0.478 0.257,-0.483 0.234,-0.483C0.222,-0.483 0.21,-0.481 0.197,-0.478C0.184,-0.475 0.173,-0.47 0.163,-0.463C0.153,-0.456 0.145,-0.447 0.139,-0.436C0.132,-0.425 0.129,-0.412 0.129,-0.397C0.129,-0.382 0.132,-0.369 0.138,-0.359C0.143,-0.35 0.151,-0.342 0.161,-0.335C0.171,-0.328 0.182,-0.322 0.196,-0.317C0.208,-0.312 0.223,-0.308 0.238,-0.303C0.256,-0.297 0.274,-0.291 0.293,-0.284C0.312,-0.277 0.329,-0.268 0.344,-0.257C0.358,-0.246 0.371,-0.232 0.381,-0.214C0.39,-0.198 0.395,-0.176 0.395,-0.149C0.395,-0.122 0.39,-0.098 0.38,-0.077C0.369,-0.057 0.355,-0.04 0.339,-0.027C0.322,-0.014 0.302,-0.004 0.281,0.003C0.259,0.009 0.236,0.012 0.213,0.012C0.18,0.012 0.147,0.005 0.116,-0.008C0.085,-0.021 0.059,-0.041 0.04,-0.066L0.096,-0.113C0.107,-0.094 0.123,-0.078 0.144,-0.067C0.165,-0.055 0.189,-0.049 0.214,-0.049C0.227,-0.049 0.24,-0.051 0.253,-0.054C0.266,-0.058 0.277,-0.064 0.288,-0.072C0.299,-0.079 0.307,-0.089 0.314,-0.101C0.321,-0.112 0.324,-0.126 0.324,-0.142C0.324,-0.159 0.321,-0.173 0.314,-0.183C0.306,-0.195 0.297,-0.204 0.286,-0.211C0.274,-0.218 0.26,-0.225 0.245,-0.23C0.23,-0.235 0.214,-0.24 0.197,-0.245C0.18,-0.25 0.163,-0.257 0.146,-0.264C0.129,-0.271 0.115,-0.28 0.102,-0.291C0.089,-0.302 0.078,-0.316 0.07,-0.333C0.062,-0.35 0.058,-0.37 0.058,-0.394C0.058,-0.42 0.063,-0.443 0.074,-0.462C0.085,-0.48 0.098,-0.496 0.116,-0.508C0.133,-0.52 0.152,-0.529 0.173,-0.534C0.194,-0.54 0.216,-0.543 0.238,-0.543C0.269,-0.543 0.298,-0.537 0.325,-0.526C0.352,-0.515 0.373,-0.5 0.389,-0.481L0.339,-0.433Z" style="fill-rule:nonzero;"/>
            </g>
        </g>
    </g>
</svg>
