<?xml version="1.0" encoding="UTF-8" standalone="no"?>
<!DOCTYPE svg PUBLIC "-//W3C//DTD SVG 1.1//EN" "http://www.w3.org/Graphics/SVG/1.1/DTD/svg11.dtd">
<svg width="100%" height="100%" viewBox="0 0 241 49" version="1.1" xmlns="http://www.w3.org/2000/svg" xmlns:xlink="http://www.w3.org/1999/xlink" xml:space="preserve" xmlns:serif="http://www.serif.com/" style="fill-rule:evenodd;clip-rule:evenodd;stroke-linejoin:round;stroke-miterlimit:2;">
    <g transform="matrix(0.11156,0,0,0.065923,-78.5251,-9.36108)">
        <path d="M816.382,142L816.382,882L703.881,711.879L703.881,312.121L816.382,142Z"/>
    </g>
    <g transform="matrix(0.11156,0,0,0.065923,-63.8469,-9.36108)">
        <path d="M816.382,142L816.382,882L703.881,771.788L703.881,252.212L816.382,142Z"/>
    </g>
    <g transform="matrix(0.11156,0,0,0.065923,-49.1686,-9.36108)">
        <path d="M816.382,142L816.382,882L703.881,800.032L703.881,223.968L816.382,142Z"/>
    </g>
    <g transform="matrix(2.09213,0,0,2.09213,-44.2399,-23.2446)">
        <g transform="matrix(1.619204,0,0,1.619204,-82.516677,-11.37457)">
            <g transform="matrix(12,0,0,12,81.930828,24.302772)">
                <path d="M0.371,-0.153L0.373,-0.153L0.515,-0.536L0.653,-0.536L0.653,-0L0.559,-0L0.559,-0.409L0.557,-0.409L0.4,-0L0.336,-0L0.18,-0.409L0.178,-0.409L0.178,-0L0.084,-0L0.084,-0.536L0.226,-0.536L0.371,-0.153Z" style="fill-rule:nonzero;"/>
            </g>
            <g transform="matrix(12,0,0,12,81.930828,24.302772)">
            </g>
            <g transform="matrix(12,0,0,12,90.774828,24.302772)">
                <path d="M0.104,-0L0.003,-0L0.231,-0.536L0.32,-0.536L0.547,-0L0.443,-0L0.393,-0.124L0.155,-0.124L0.104,-0ZM0.184,-0.201L0.363,-0.201L0.274,-0.426L0.184,-0.201Z" style="fill-rule:nonzero;"/>
            </g>
            <g transform="matrix(12,0,0,12,90.702828,24.302772)">
            </g>
            <g transform="matrix(12,0,0,12,97.302828,24.302772)">
                <path d="M0.477,-0.409C0.462,-0.426 0.442,-0.44 0.418,-0.45C0.395,-0.46 0.369,-0.465 0.34,-0.465C0.311,-0.465 0.286,-0.46 0.263,-0.45C0.24,-0.44 0.221,-0.426 0.205,-0.409C0.189,-0.391 0.177,-0.37 0.168,-0.346C0.159,-0.322 0.155,-0.296 0.155,-0.269C0.155,-0.242 0.16,-0.216 0.169,-0.192C0.177,-0.168 0.19,-0.147 0.207,-0.129C0.223,-0.111 0.243,-0.097 0.266,-0.087C0.289,-0.076 0.315,-0.071 0.344,-0.071C0.386,-0.071 0.422,-0.078 0.452,-0.092L0.452,-0.224L0.339,-0.224L0.339,-0.302L0.548,-0.302L0.548,-0.034C0.519,-0.019 0.488,-0.007 0.454,0.002C0.419,0.01 0.382,0.014 0.342,0.014C0.299,0.014 0.26,0.007 0.225,-0.007C0.189,-0.021 0.158,-0.041 0.133,-0.066C0.108,-0.091 0.088,-0.12 0.073,-0.155C0.059,-0.19 0.052,-0.228 0.052,-0.269C0.052,-0.311 0.059,-0.349 0.074,-0.384C0.089,-0.419 0.109,-0.448 0.134,-0.473C0.159,-0.497 0.19,-0.516 0.225,-0.529C0.26,-0.543 0.298,-0.55 0.339,-0.55C0.382,-0.55 0.421,-0.543 0.457,-0.53C0.491,-0.517 0.521,-0.499 0.544,-0.478L0.477,-0.409Z" style="fill-rule:nonzero;"/>
            </g>
            <g transform="matrix(12,0,0,12,97.302828,24.302772)">
            </g>
            <g transform="matrix(12,0,0,12,104.802828,24.302772)">
                <path d="M0.439,-0.13L0.441,-0.13L0.441,-0.536L0.534,-0.536L0.534,-0L0.42,-0L0.179,-0.404L0.177,-0.404L0.177,-0L0.084,-0L0.084,-0.536L0.2,-0.536L0.439,-0.13Z" style="fill-rule:nonzero;"/>
            </g>
            <g transform="matrix(12,0,0,12,104.802828,24.302772)">
            </g>
            <g transform="matrix(12,0,0,12,112.218828,24.302772)">
                <path d="M0.629,-0.269C0.629,-0.228 0.622,-0.19 0.607,-0.155C0.592,-0.12 0.572,-0.091 0.546,-0.066C0.52,-0.041 0.489,-0.021 0.454,-0.007C0.419,0.007 0.38,0.014 0.339,0.014C0.298,0.014 0.261,0.007 0.226,-0.007C0.191,-0.021 0.16,-0.041 0.135,-0.066C0.109,-0.091 0.089,-0.12 0.074,-0.155C0.059,-0.19 0.052,-0.228 0.052,-0.269C0.052,-0.311 0.059,-0.349 0.074,-0.384C0.089,-0.419 0.109,-0.448 0.135,-0.473C0.16,-0.497 0.191,-0.516 0.226,-0.529C0.261,-0.543 0.298,-0.55 0.339,-0.55C0.38,-0.55 0.419,-0.543 0.454,-0.529C0.489,-0.516 0.52,-0.497 0.546,-0.473C0.572,-0.448 0.592,-0.419 0.607,-0.384C0.622,-0.349 0.629,-0.311 0.629,-0.269ZM0.526,-0.269C0.526,-0.297 0.522,-0.323 0.513,-0.347C0.504,-0.37 0.492,-0.391 0.476,-0.409C0.459,-0.426 0.44,-0.44 0.416,-0.45C0.393,-0.46 0.368,-0.465 0.339,-0.465C0.311,-0.465 0.286,-0.46 0.263,-0.45C0.24,-0.44 0.221,-0.426 0.205,-0.409C0.189,-0.391 0.177,-0.37 0.168,-0.347C0.159,-0.323 0.155,-0.297 0.155,-0.269C0.155,-0.241 0.159,-0.215 0.168,-0.191C0.177,-0.166 0.189,-0.145 0.205,-0.128C0.221,-0.11 0.24,-0.096 0.263,-0.086C0.286,-0.076 0.311,-0.071 0.339,-0.071C0.368,-0.071 0.393,-0.076 0.416,-0.086C0.44,-0.096 0.459,-0.11 0.476,-0.128C0.492,-0.145 0.504,-0.166 0.513,-0.191C0.522,-0.215 0.526,-0.241 0.526,-0.269Z" style="fill-rule:nonzero;"/>
            </g>
            <g transform="matrix(12,0,0,12,112.218828,24.302772)">
            </g>
            <g transform="matrix(12,0,0,12,120.390828,24.302772)">
                <path d="M0.18,-0.081L0.41,-0.081L0.41,-0L0.084,-0L0.084,-0.536L0.18,-0.536L0.18,-0.081Z" style="fill-rule:nonzero;"/>
            </g>
            <g transform="matrix(12,0,0,12,120.390828,24.302772)">
            </g>
            <g transform="matrix(12,0,0,12,125.430828,24.302772)">
                <rect x="0.084" y="-0.536" width="0.096" height="0.536" style="fill-rule:nonzero;"/>
            </g>
            <g transform="matrix(12,0,0,12,125.430828,24.302772)">
            </g>
            <g transform="matrix(12,0,0,12,128.598828,24.302772)">
                <path d="M0.104,-0L0.003,-0L0.231,-0.536L0.32,-0.536L0.547,-0L0.443,-0L0.393,-0.124L0.155,-0.124L0.104,-0ZM0.184,-0.201L0.363,-0.201L0.274,-0.426L0.184,-0.201Z" style="fill-rule:nonzero;"/>
            </g>
            <g transform="matrix(12,0,0,12,128.598828,24.302772)">
            </g>
            <g transform="matrix(12,0,0,12,135.198828,24.302772)">
            </g>
        </g>
    </g>
</svg>
