<?xml version="1.0" encoding="UTF-8" standalone="no"?>
<!DOCTYPE svg PUBLIC "-//W3C//DTD SVG 1.1//EN" "http://www.w3.org/Graphics/SVG/1.1/DTD/svg11.dtd">
<svg width="100%" height="100%" viewBox="0 0 137 49" version="1.1" xmlns="http://www.w3.org/2000/svg" xmlns:xlink="http://www.w3.org/1999/xlink" xml:space="preserve" xmlns:serif="http://www.serif.com/" style="fill-rule:evenodd;clip-rule:evenodd;stroke-linejoin:round;stroke-miterlimit:2;">
    <g transform="matrix(0.11156,0,0,0.0659231,-78.5251,-9.36108)">
        <path d="M816.382,142L816.382,882L703.881,711.879L703.881,312.121L816.382,142Z"/>
    </g>
    <g transform="matrix(0.11156,0,0,0.0659231,-63.8469,-9.36108)">
        <path d="M816.382,142L816.382,882L703.881,771.788L703.881,252.212L816.382,142Z"/>
    </g>
    <g transform="matrix(0.11156,0,0,0.0659231,-49.1686,-9.36108)">
        <path d="M816.382,142L816.382,882L703.881,800.032L703.881,223.968L816.382,142Z"/>
    </g>
    <g transform="matrix(1,0,0,1,0,-0.783043)">
        <g transform="matrix(20.1297,0,0,20.1297,48.1948,30.207)">
            <path d="M0.073,-0L0.073,-0.7L0.276,-0.7L0.429,-0.072L0.445,-0.072L0.598,-0.7L0.801,-0.7L0.801,-0L0.696,-0L0.696,-0.624L0.68,-0.624L0.528,-0L0.346,-0L0.194,-0.624L0.178,-0.624L0.178,-0L0.073,-0Z" style="fill-rule:nonzero;"/>
        </g>
        <g transform="matrix(20.1297,0,0,20.1297,65.7797,30.207)">
            <path d="M0.229,0.014C0.194,0.014 0.162,0.008 0.134,-0.004C0.107,-0.016 0.084,-0.034 0.068,-0.057C0.052,-0.081 0.044,-0.109 0.044,-0.142C0.044,-0.176 0.052,-0.204 0.068,-0.226C0.084,-0.249 0.107,-0.265 0.135,-0.277C0.164,-0.288 0.196,-0.294 0.232,-0.294L0.382,-0.294L0.382,-0.326C0.382,-0.354 0.374,-0.378 0.356,-0.395C0.339,-0.413 0.312,-0.421 0.276,-0.421C0.241,-0.421 0.214,-0.413 0.195,-0.396C0.176,-0.38 0.164,-0.358 0.158,-0.331L0.062,-0.362C0.07,-0.388 0.083,-0.413 0.101,-0.434C0.118,-0.456 0.142,-0.473 0.171,-0.487C0.2,-0.5 0.236,-0.507 0.277,-0.507C0.341,-0.507 0.392,-0.49 0.428,-0.458C0.465,-0.425 0.483,-0.379 0.483,-0.319L0.483,-0.116C0.483,-0.096 0.492,-0.086 0.511,-0.086L0.553,-0.086L0.553,-0L0.476,-0C0.453,-0 0.434,-0.006 0.419,-0.018C0.405,-0.03 0.398,-0.047 0.398,-0.067L0.398,-0.07L0.382,-0.07C0.377,-0.06 0.369,-0.048 0.358,-0.035C0.347,-0.021 0.332,-0.01 0.311,-0C0.29,0.009 0.263,0.014 0.229,0.014ZM0.244,-0.071C0.285,-0.071 0.318,-0.083 0.344,-0.107C0.37,-0.13 0.382,-0.163 0.382,-0.204L0.382,-0.214L0.238,-0.214C0.211,-0.214 0.189,-0.209 0.172,-0.197C0.155,-0.185 0.147,-0.168 0.147,-0.145C0.147,-0.122 0.156,-0.104 0.173,-0.091C0.19,-0.078 0.214,-0.071 0.244,-0.071Z" style="fill-rule:nonzero;"/>
        </g>
        <g transform="matrix(20.1297,0,0,20.1297,77.1451,30.207)">
            <path d="M0.052,-0.244L0.052,-0.259C0.052,-0.311 0.063,-0.355 0.083,-0.392C0.104,-0.429 0.132,-0.457 0.167,-0.477C0.201,-0.497 0.24,-0.507 0.281,-0.507C0.329,-0.507 0.366,-0.498 0.392,-0.48C0.417,-0.462 0.436,-0.443 0.448,-0.422L0.464,-0.422L0.464,-0.493L0.564,-0.493L0.564,0.101C0.564,0.131 0.555,0.155 0.538,0.173C0.52,0.191 0.496,0.2 0.465,0.2L0.133,0.2L0.133,0.11L0.433,0.11C0.452,0.11 0.462,0.1 0.462,0.08L0.462,-0.077L0.446,-0.077C0.438,-0.065 0.428,-0.052 0.415,-0.04C0.401,-0.027 0.384,-0.017 0.362,-0.009C0.341,-0.001 0.314,0.003 0.281,0.003C0.24,0.003 0.201,-0.006 0.167,-0.026C0.132,-0.046 0.104,-0.074 0.083,-0.111C0.063,-0.148 0.052,-0.193 0.052,-0.244ZM0.309,-0.087C0.354,-0.087 0.391,-0.101 0.42,-0.129C0.448,-0.157 0.463,-0.197 0.463,-0.247L0.463,-0.256C0.463,-0.307 0.449,-0.347 0.42,-0.374C0.391,-0.402 0.354,-0.416 0.309,-0.416C0.265,-0.416 0.228,-0.402 0.199,-0.374C0.17,-0.347 0.156,-0.307 0.156,-0.256L0.156,-0.247C0.156,-0.197 0.17,-0.157 0.199,-0.129C0.228,-0.101 0.265,-0.087 0.309,-0.087Z" style="fill-rule:nonzero;"/>
        </g>
        <g transform="matrix(20.1297,0,0,20.1297,90.0303,30.207)">
            <path d="M0.076,-0L0.076,-0.493L0.177,-0.493L0.177,-0.419L0.193,-0.419C0.203,-0.439 0.219,-0.458 0.243,-0.475C0.267,-0.493 0.302,-0.501 0.35,-0.501C0.387,-0.501 0.42,-0.493 0.45,-0.476C0.479,-0.46 0.502,-0.436 0.518,-0.406C0.535,-0.375 0.543,-0.339 0.543,-0.296L0.543,-0L0.44,-0L0.44,-0.288C0.44,-0.331 0.429,-0.363 0.408,-0.383C0.387,-0.403 0.357,-0.413 0.32,-0.413C0.277,-0.413 0.243,-0.399 0.218,-0.371C0.192,-0.343 0.179,-0.302 0.179,-0.249L0.179,-0L0.076,-0Z" style="fill-rule:nonzero;"/>
        </g>
        <g transform="matrix(20.1297,0,0,20.1297,102.402,30.207)">
            <path d="M0.307,0.014C0.258,0.014 0.214,0.004 0.176,-0.017C0.137,-0.037 0.107,-0.066 0.085,-0.104C0.063,-0.142 0.052,-0.187 0.052,-0.239L0.052,-0.254C0.052,-0.306 0.063,-0.351 0.085,-0.389C0.107,-0.427 0.137,-0.456 0.176,-0.476C0.214,-0.496 0.258,-0.507 0.307,-0.507C0.357,-0.507 0.401,-0.496 0.439,-0.476C0.478,-0.456 0.508,-0.427 0.53,-0.389C0.552,-0.351 0.563,-0.306 0.563,-0.254L0.563,-0.239C0.563,-0.187 0.552,-0.142 0.53,-0.104C0.508,-0.066 0.478,-0.037 0.439,-0.017C0.401,0.004 0.357,0.014 0.307,0.014ZM0.307,-0.078C0.353,-0.078 0.389,-0.092 0.417,-0.121C0.446,-0.15 0.46,-0.19 0.46,-0.242L0.46,-0.251C0.46,-0.302 0.446,-0.342 0.418,-0.371C0.39,-0.4 0.353,-0.415 0.307,-0.415C0.262,-0.415 0.226,-0.4 0.198,-0.371C0.169,-0.342 0.155,-0.302 0.155,-0.251L0.155,-0.242C0.155,-0.19 0.169,-0.15 0.198,-0.121C0.226,-0.092 0.262,-0.078 0.307,-0.078Z" style="fill-rule:nonzero;"/>
        </g>
        <g transform="matrix(20.1297,0,0,20.1297,114.778,30.207)">
            <rect x="0.076" y="-0.7" width="0.103" height="0.7"/>
        </g>
        <g transform="matrix(20.1297,0,0,20.1297,119.921,30.207)">
            <path d="M0.076,-0L0.076,-0.493L0.179,-0.493L0.179,-0L0.076,-0ZM0.128,-0.56C0.108,-0.56 0.091,-0.567 0.078,-0.58C0.064,-0.592 0.057,-0.609 0.057,-0.63C0.057,-0.651 0.064,-0.668 0.078,-0.681C0.091,-0.694 0.108,-0.7 0.128,-0.7C0.149,-0.7 0.166,-0.694 0.179,-0.681C0.192,-0.668 0.199,-0.651 0.199,-0.63C0.199,-0.609 0.192,-0.592 0.179,-0.58C0.166,-0.567 0.149,-0.56 0.128,-0.56Z" style="fill-rule:nonzero;"/>
        </g>
        <g transform="matrix(20.1297,0,0,20.1297,125.064,30.207)">
            <path d="M0.229,0.014C0.194,0.014 0.162,0.008 0.134,-0.004C0.107,-0.016 0.084,-0.034 0.068,-0.057C0.052,-0.081 0.044,-0.109 0.044,-0.142C0.044,-0.176 0.052,-0.204 0.068,-0.226C0.084,-0.249 0.107,-0.265 0.135,-0.277C0.164,-0.288 0.196,-0.294 0.232,-0.294L0.382,-0.294L0.382,-0.326C0.382,-0.354 0.374,-0.378 0.356,-0.395C0.339,-0.413 0.312,-0.421 0.276,-0.421C0.241,-0.421 0.214,-0.413 0.195,-0.396C0.176,-0.38 0.164,-0.358 0.158,-0.331L0.062,-0.362C0.07,-0.388 0.083,-0.413 0.101,-0.434C0.118,-0.456 0.142,-0.473 0.171,-0.487C0.2,-0.5 0.236,-0.507 0.277,-0.507C0.341,-0.507 0.392,-0.49 0.428,-0.458C0.465,-0.425 0.483,-0.379 0.483,-0.319L0.483,-0.116C0.483,-0.096 0.492,-0.086 0.511,-0.086L0.553,-0.086L0.553,-0L0.476,-0C0.453,-0 0.434,-0.006 0.419,-0.018C0.405,-0.03 0.398,-0.047 0.398,-0.067L0.398,-0.07L0.382,-0.07C0.377,-0.06 0.369,-0.048 0.358,-0.035C0.347,-0.021 0.332,-0.01 0.311,-0C0.29,0.009 0.263,0.014 0.229,0.014ZM0.244,-0.071C0.285,-0.071 0.318,-0.083 0.344,-0.107C0.37,-0.13 0.382,-0.163 0.382,-0.204L0.382,-0.214L0.238,-0.214C0.211,-0.214 0.189,-0.209 0.172,-0.197C0.155,-0.185 0.147,-0.168 0.147,-0.145C0.147,-0.122 0.156,-0.104 0.173,-0.091C0.19,-0.078 0.214,-0.071 0.244,-0.071Z" style="fill-rule:nonzero;"/>
        </g>
    </g>
</svg>
